<?xml version="1.0" encoding="utf-8"?>
<!-- Generator: Adobe Illustrator 23.0.6, SVG Export Plug-In . SVG Version: 6.00 Build 0)  -->
<svg version="1.1" xmlns="http://www.w3.org/2000/svg" xmlns:xlink="http://www.w3.org/1999/xlink" x="0px" y="0px"
	 viewBox="0 0 600 600" style="enable-background:new 0 0 600 600;" xml:space="preserve">
<style type="text/css">
	.st0{opacity:0.5;}
	.st1{fill:#28527A;}
	.st2{fill:#8AC4D0;}
	.st3{fill:#F4D160;}
	.st4{fill:#FBEEAC;}
	.st5{fill:#4A47A3;}
	.st6{fill:#E97878;}
	.st7{fill:#9B5151;}
	.st8{fill:#ED6363;}
	.st9{fill:#763857;}
	.st10{fill:#81B214;}
	.st11{fill:#FFAEC0;}
	.st12{fill:#BFDCAE;}
	.st13{fill:#BFB051;}
	.st14{fill:#150485;}
	.st15{fill:#BECA5C;}
	.st16{fill:#03C4A1;}
	.st17{fill:#EF8D32;}
	.st18{fill:#C62A88;}
	.st19{fill:#583D72;}
	.st20{fill:#9F5F80;}
	.st21{fill:#FFBA93;}
	.st22{fill:#FF8E71;}
	.st23{fill:#AA2B1D;}
	.st24{fill:#CC561E;}
</style>
<g id="Layer_1">
	<g class="st0">
		<rect x="5.5" y="6" class="st1" width="276.5" height="541"/>
	</g>
	<g class="st0">
		<rect x="100.33" y="6" class="st2" width="363.67" height="231"/>
	</g>
	<g class="st0">
		<rect x="195.17" y="6" class="st3" width="15.83" height="435"/>
	</g>
	<g class="st0">
		<rect x="270" y="6" class="st4" width="127" height="347"/>
	</g>
	<g class="st0">
		<rect x="375" y="6" class="st5" width="219" height="83"/>
	</g>
	<g class="st0">
		<rect x="480" y="6" class="st6" width="19.67" height="508"/>
	</g>
	<g class="st0">
		<rect x="459" y="6" class="st7" width="135.5" height="133"/>
	</g>
	<g class="st0">
		<rect x="5.42" y="6" class="st8" width="179.58" height="114.67"/>
	</g>
	<g class="st0">
		<rect x="156" y="100.67" class="st9" width="438.42" height="78.33"/>
	</g>
	<g class="st0">
		<rect x="5.33" y="143" class="st10" width="409.67" height="72.33"/>
	</g>
	<g class="st0">
		<rect x="373" y="195.33" class="st11" width="221.33" height="316.67"/>
	</g>
	<g class="st0">
		<rect x="5.25" y="290" class="st12" width="556.75" height="38"/>
	</g>
	<g class="st0">
		<rect x="300" y="74" class="st13" width="294.25" height="236"/>
	</g>
	<g class="st0">
		<rect x="5.17" y="232" class="st14" width="143.83" height="172.67"/>
	</g>
	<g class="st0">
		<rect x="182" y="384.67" class="st15" width="412.17" height="194.33"/>
	</g>
	<g class="st0">
		<rect x="5.08" y="6" class="st16" width="21.92" height="493.33"/>
	</g>
	<g class="st0">
		<rect x="317" y="369" class="st17" width="277.08" height="110.33"/>
	</g>
	<g class="st0">
		<rect x="5" y="540" class="st18" width="570" height="54"/>
	</g>
	<g class="st0">
		<rect x="80" y="156" class="st19" width="39.83" height="438"/>
	</g>
	<g class="st0">
		<rect x="6" y="511" class="st20" width="208.67" height="83"/>
	</g>
	<g class="st0">
		<rect x="251" y="57" class="st21" width="58.5" height="537"/>
	</g>
	<g class="st0">
		<rect x="113" y="332" class="st22" width="291.33" height="262"/>
	</g>
	<g class="st0">
		<rect x="462" y="252" class="st23" width="37.17" height="342"/>
	</g>
	<g class="st0">
		<rect x="520" y="140" class="st24" width="74" height="454"/>
	</g>
</g>
<g id="Layer_2">
</g>
</svg>
